<?xml version="1.0" encoding="utf-8"?>
<!-- Generator: Adobe Illustrator 23.0.0, SVG Export Plug-In . SVG Version: 6.00 Build 0)  -->
<svg version="1.1" id="Layer_1" xmlns="http://www.w3.org/2000/svg" xmlns:xlink="http://www.w3.org/1999/xlink" x="0px" y="0px"
	 viewBox="0 0 251 48.1" style="enable-background:new 0 0 251 48.1;" xml:space="preserve">
<style type="text/css">
	.st0{fill:#092247;}
	.st1{fill:#D12635;}
	.st2{fill:#F8B133;}
</style>
<g>
	<g>
		<g>
			<path class="st0" d="M0,0v48.1h11.2V0H0z"/>
			<path class="st0" d="M52.3,0v25.5c0,0.8,0,1.6,0.1,2.5c0,0.9,0.1,1.8,0.2,2.7L29.7,1.7c-0.3-0.4-0.6-0.7-0.8-0.9
				c-0.2-0.2-0.5-0.4-0.8-0.5c-0.3-0.1-0.6-0.2-0.9-0.2C26.9,0,26.5,0,26,0h-5.9v48.1H30V22.3c0-0.7,0-1.5-0.1-2.3
				c0-0.8-0.1-1.6-0.2-2.5l22.7,28.7c0.6,0.7,1.1,1.2,1.7,1.5c0.6,0.3,1.3,0.4,2.2,0.4h5.8V0H52.3z"/>
			<path class="st0" d="M101.1,8.6V0h-31v48.1h11.2V29.4h16.5v-8.6H81.4V8.6H101.1z"/>
			<path class="st0" d="M107.9,48.1h11.2V17.6L107.9,6.3V48.1z"/>
			<path class="st0" d="M160.3,0v25.5c0,0.8,0,1.6,0.1,2.5c0,0.9,0.1,1.8,0.2,2.7L137.7,1.7c-0.3-0.4-0.6-0.7-0.8-0.9
				c-0.2-0.2-0.5-0.4-0.8-0.5c-0.3-0.1-0.6-0.2-0.9-0.2C134.8,0,134.4,0,134,0h-5.9v48.1h9.8V22.3c0-0.7,0-1.5-0.1-2.3
				s-0.1-1.6-0.2-2.5l22.7,28.7c0.6,0.7,1.1,1.2,1.7,1.5c0.6,0.3,1.3,0.4,2.2,0.4h5.8V0H160.3z"/>
			<path class="st0" d="M179,0v48.1h11.2V0H179z"/>
			<path class="st0" d="M195.9,0v8.9h13.5v39.3h11.2V8.9h13.5V0H195.9z"/>
			<path class="st0" d="M239.8,0v48.1H251V0H239.8z"/>
		</g>
	</g>
	<g>
		<polygon class="st1" points="119.2,0 119.2,11.2 113.5,5.6 		"/>
		<polygon class="st2" points="119.2,0 113.5,5.6 107.9,0 		"/>
	</g>
</g>
</svg>
